<svg id="Ñëîé_1" data-name="Ñëîé 1" xmlns="http://www.w3.org/2000/svg" xmlns:xlink="http://www.w3.org/1999/xlink" viewBox="0 0 117.27 141.96"><defs><style>.cls-1{fill:#4d4d4d;}.cls-2{fill:#173d7a;}.cls-3{fill:#396caa;}.cls-4{fill:url(#radial-gradient);}.cls-5{fill:none;stroke:#ff3d9d;stroke-miterlimit:10;stroke-width:5px;}</style><radialGradient id="radial-gradient" cx="384.74" cy="87.14" r="0" gradientTransform="matrix(1, 0, 0, -1, -67.33, 329.28)" gradientUnits="userSpaceOnUse"><stop offset="0" stop-color="#fff715"/><stop offset="0.32" stop-color="#fff516"/><stop offset="0.51" stop-color="#ffec18"/><stop offset="0.66" stop-color="#ffde1c"/><stop offset="0.8" stop-color="#ffcb21"/><stop offset="0.91" stop-color="#ffb328"/></radialGradient></defs><title>logo</title><g id="Rhino_logo" data-name="Rhino logo"><path id="Path_2240" data-name="Path 2240" class="cls-1" d="M272.71,231.61" transform="translate(-219 -132)"/><g id="Group_380" data-name="Group 380"><path id="Path_2241" data-name="Path 2241" class="cls-2" d="M264.81,222.89a9.66,9.66,0,0,1-1.13-2.1,7.69,7.69,0,0,1-.64-4.23,4.1,4.1,0,0,1,1.13-2.25,9.69,9.69,0,0,1,2.52,4.3l-.15,0a1.39,1.39,0,0,0-1.75.86,2.79,2.79,0,0,0-.25,1.21C264.57,221.41,264.72,222.16,264.81,222.89Z" transform="translate(-219 -132)"/><path id="Path_2242" data-name="Path 2242" class="cls-2" d="M306.24,188.64c-.13.25-.27.49-.42.73s-.24.15-.4,0c-.32-.32-.67-.63-1-.92-.19-.16-.16-.3,0-.47a1,1,0,0,1,1.12-.36A1.19,1.19,0,0,1,306.24,188.64Z" transform="translate(-219 -132)"/><path id="Path_2243" data-name="Path 2243" class="cls-2" d="M262.22,188.8a.84.84,0,0,1-.65.77,1,1,0,0,1-1.07-.32.94.94,0,0,1-.1-1Z" transform="translate(-219 -132)"/><path id="Path_2244" data-name="Path 2244" class="cls-2" d="M301.55,192.5c0,.15,0,.21-.05.25l-.31.29a2.9,2.9,0,0,1-.19-.29,1.18,1.18,0,0,1-.1-.3c0-.1,0-.26,0-.28a.38.38,0,0,1,.33,0A1.78,1.78,0,0,1,301.55,192.5Z" transform="translate(-219 -132)"/><path id="Path_2245" data-name="Path 2245" class="cls-2" d="M321.33,166.12c.13.31.24.59.36.89a.41.41,0,0,1-.57-.14l0,0C321,166.58,321,166.35,321.33,166.12Z" transform="translate(-219 -132)"/><path id="Path_2246" data-name="Path 2246" class="cls-2" d="M275.57,166.49l-.05-.07c.09-.08.17-.22.25-.22a.76.76,0,0,1,.67.29Z" transform="translate(-219 -132)"/><path id="Path_2247" data-name="Path 2247" class="cls-2" d="M321.78,167.25c0,.27-.14.31-.3.3a.4.4,0,0,1-.42-.37v-.06a2.48,2.48,0,0,0,.35.13Z" transform="translate(-219 -132)"/><path id="Path_2248" data-name="Path 2248" class="cls-2" d="M328.18,203c-6.4,19.86-16.67,26.32-22.38,30.59l-.13-.31a22.5,22.5,0,0,0-4.41-7.15,13.81,13.81,0,0,0-10.71-4.84,11.85,11.85,0,0,0-8.72,3.71,16.67,16.67,0,0,0-3.94,7.1c-.24.82-.23.81-1.1.7a49.35,49.35,0,0,1-8.06-1.78,55.56,55.56,0,0,1-14.64-6.89,65.72,65.72,0,0,1-6-4.64l-.57-.5c-.31-.29-.72-.67-1.19-1.15-1.24-1.23-2.12-2.23-2.44-2.6,0,0-1.09-1.25-2.11-2.58-4.92-6.48-8-15.54-8-15.54a72.88,72.88,0,0,1-3.44-22.61V174a.43.43,0,0,1,.2.26,51.15,51.15,0,0,0,11.25,16.51A39.14,39.14,0,0,0,251.84,198a16.79,16.79,0,0,0,5.56,1.8,17.81,17.81,0,0,0,1.79,0c-.11-.15-.16-.24-.22-.31a19.82,19.82,0,0,1-2.91-5.12,3,3,0,0,0-.22-.72c-.05-.1-.1-.18-.13-.23-.18-.54-.35-1.1-.5-1.69a26.38,26.38,0,0,1-.86-6.68,10.35,10.35,0,0,1,.32-2.88,12.1,12.1,0,0,0,4.81,5.56l3.76,1.22,1.41.09a2.16,2.16,0,0,0,1.1,0,1.25,1.25,0,0,1,.6-.16l.21,0a6.8,6.8,0,0,0,1.46-.43,14.6,14.6,0,0,0,2.81-1.7c.3.87.59,1.73.88,2.6a13.33,13.33,0,0,1-8.92,2.12,12.75,12.75,0,0,1-4.32-1.45l-1.56-.41-.07.07c.11.3.22.61.32.93.16.48.31,1,.44,1.42.09.25.17.51.26.77s.23.51.35.76c.42.81.8,1.64,1.28,2.41a13.72,13.72,0,0,0,3.84,4.15c.1.07.25.15.34.11.33-.11.65-.28,1.05-.45l-.22-.14a18.18,18.18,0,0,1-5.11-6c-.08-.14,0-.38-.12-.47s-.11-.39-.1-.6l.48.63a6.76,6.76,0,0,1,.72.46,14.24,14.24,0,0,0,7,3.24.42.42,0,0,0,.53-.27h0c.23-.48.21-3.29.9-4,.32-.33,1.08-.45,2.91.32a1,1,0,0,1,0,.12c0,.3-.07.6-.13.89a10.14,10.14,0,0,1-7.11,8.25,13,13,0,0,1-7.86,0l-.37-.1a16,16,0,0,1-1,7.94,14.48,14.48,0,0,1-4.55,6.55l.4.48a21.33,21.33,0,0,0,5.24,4.21,51.75,51.75,0,0,0,10.72,4.65.47.47,0,0,0,.17,0s.05-.05.05-.07l.17-.51a19.08,19.08,0,0,1,5.76-8.53.55.55,0,0,1,.39-.16,1.48,1.48,0,0,0,1.48-.66,9.49,9.49,0,0,1,.7-.72l.18-.14.1,0v1.62a17.84,17.84,0,0,0-2.13,2c-.64.8-1.33,1.57-1.9,2.43a23,23,0,0,0-1.44,2.68,13,13,0,0,0-1,3l6.23,1.69c.13-.5.23-.92.36-1.32a16.4,16.4,0,0,1,5.08-7.42c.31-.27.57-.48.71-.58a14.43,14.43,0,0,1,1.16-.87,19.64,19.64,0,0,1,2.47-1.44,23.52,23.52,0,0,1,2.92-1.25l1-.35,3-.68c.31,0,.75-.1,1.26-.14a25.25,25.25,0,0,1,6.67.23c.26,0,.35,0,.43-.27a31.8,31.8,0,0,0,1.45-6.39,36.14,36.14,0,0,0-.63-12.18c-.18-.85-.4-1.68-.6-2.53l-.43-1.33c-.17-.52-.34-1-.48-1.45l1.38-.13.24.1c2.4,1.3,3.86,6.78,3.86,6.78,2.48,9.28,2.79,13.19,2.7,15.83v.33l.11-.12a76.19,76.19,0,0,0,5.56-8.54.87.87,0,0,0,.08-.67,32.54,32.54,0,0,0-2.47-6.31,32.19,32.19,0,0,0-2.74-4.39c-.71-.94-1.48-1.84-1.59-2-.43-.5-.81-.91-1.11-1.23l-2.85-2.58a34.69,34.69,0,0,0-6.2-4c-.09,1.16-.17,2.26-.24,3.27-.36-.07-.65-.1-.94-.18a.79.79,0,0,1-.4-.22c-.67-.89-1.33-1.79-2-2.7a.55.55,0,0,1-.09-.43,37.73,37.73,0,0,0,1.07-6.59,25.85,25.85,0,0,0-.56-8,1.21,1.21,0,0,0-.37-.57c-.95-1.33-2-1.75-3.78-2.77-.57-.33-1.42-.85-2.44-1.57,0-.8.08-1.56.12-2.34,5.77,1.85,7.89,4.33,8.71,5.57a1.79,1.79,0,0,1,.3.47,40.69,40.69,0,0,1,1.08,7.92c0,.32.08.45.43.51a41.52,41.52,0,0,1,11.5,3.88,58.27,58.27,0,0,1,9.86,6.26l.41.32a2,2,0,0,0,0-.24,44.74,44.74,0,0,0,.05-6.75,52.25,52.25,0,0,0-3.09-14.24c-.78-2.1-1.66-4.17-2.53-6.23a19.59,19.59,0,0,0-1.32-2.68c-.56-.9-1.26-1.7-1.89-2.55a.43.43,0,0,0-.44-.19c-.74.11-1.49.18-2.23.3A49.66,49.66,0,0,0,292,159.49l-1.17.64c-2.84.05-3.57-.3-3.66-.67-.2-.79,2.18-2.79,13.34-6.26a46.65,46.65,0,0,1,11.34-2.2.5.5,0,0,1,.47.19c1.78,2.15,4.75,4.27,6.2,6.66.56.94,2.32,3,2.86,3.9.36.71,1.13,2.12,1.5,2.82.17.38,7.74,14.19,6.73,25.1m-94.1,4.81a54.48,54.48,0,0,0,4.17,10.05,50.09,50.09,0,0,0,6.19,9c.07.18.48,1.19,1.14,1.22a.54.54,0,0,0,.43-.09c.39-.22.8-.4,1.25-.62-.88-1.21-1.61-2.25-2.16-3-7.54-10.91-8.64-13.83-10-18.07-.3-.95-.55-1.92-.82-2.88v-.16c4.18,7.85,9.74,14.23,18,18,.18-.53.34-1,.48-1.43a19,19,0,0,0,.76-4.49c0-.18,0-.29-.23-.34a29,29,0,0,1-11.18-5.93,47.91,47.91,0,0,1-10-11.66,1.79,1.79,0,0,0-.2-.26,61.49,61.49,0,0,0,2.24,10.65Z" transform="translate(-219 -132)"/><path id="Path_2249" data-name="Path 2249" class="cls-2" d="M248.57,211.88a.6.6,0,0,1,.6-.63h0a.65.65,0,0,1,.64.62.62.62,0,0,1-.62.63h0a.6.6,0,0,1-.63-.58Z" transform="translate(-219 -132)"/><path id="Path_2250" data-name="Path 2250" class="cls-2" d="M293.57,217.77a1.88,1.88,0,0,0,0,1.62,3.12,3.12,0,0,0-.61,0,.67.67,0,0,1-.86-.39.7.7,0,0,1,.06-.6.62.62,0,0,1,.7-.28l.32.1c0-.17,0-.32,0-.46Z" transform="translate(-219 -132)"/><path id="Path_2251" data-name="Path 2251" class="cls-2" d="M319.22,166.67c0-.46.21-.71.59-.74a.66.66,0,0,1,.71.59.69.69,0,0,1-.54.73.58.58,0,0,1-.69-.42v0c.37.25.73.5,1-.12Z" transform="translate(-219 -132)"/><path id="Path_2252" data-name="Path 2252" class="cls-2" d="M318.19,166l.38-.05a.35.35,0,0,1,.42.26h0a.31.31,0,0,1-.22.39h0l-.21.07a.43.43,0,0,0-.19.19.27.27,0,0,0,.12.2.43.43,0,0,0,.27,0,2,2,0,0,0,.27-.23v.38a1.2,1.2,0,0,1-.42.07.77.77,0,0,1-.42-.26c-.1-.19,0-.37.23-.45s.16,0,.21-.07a1.26,1.26,0,0,0,.19-.28,1.87,1.87,0,0,0-.34,0,1,1,0,0,0-.21.1C318.21,166.15,318.2,166.08,318.19,166Z" transform="translate(-219 -132)"/><path id="Path_2253" data-name="Path 2253" class="cls-2" d="M269,153.69l1.78,2.06c1.78,2.07,3.53,4.13,5.23,6.19.05-.77.06-1.6,0-2.46,0-.33,0-.65-.05-1l.37.12c2,.81,3.44,1.31,5.4,2.24s3.23,1.62,3.64,1.85.91.51,1.22.7v-1.29c0-.16,0-.27,0-.51,0-.4,0-.72,0-.92s0-.46.06-.74l-.1,0A50.57,50.57,0,0,1,269,153.69Z" transform="translate(-219 -132)"/><path id="Path_2254" data-name="Path 2254" class="cls-2" d="M290,180.56c.13-.69.26-1.32.37-1.95a42.43,42.43,0,0,0,.75-8.11,2.13,2.13,0,0,0-.24-1,1.6,1.6,0,0,0-.37-.41c-.44-.36-1.32-1.14-2.52-2.23-.51-.34-1.23-.81-2.12-1.34-1.4-.83-4.63-2.62-4.88-2.26-.15.2,1.2,1.54,3.9,4.22a57,57,0,0,1,3.42,5.12.91.91,0,0,1,.08.49,7.59,7.59,0,0,1-.83,2.82s0,.1,0,.28C287.7,177.81,289.39,179.83,290,180.56Z" transform="translate(-219 -132)"/><path id="Path_2255" data-name="Path 2255" class="cls-2" d="M273.84,213.31a11.91,11.91,0,0,1,1.22.77,2.88,2.88,0,0,1,.65.78.56.56,0,0,1,.09.31c0,.35-.44.57-.51.6a1.17,1.17,0,0,1,.59.29,1.19,1.19,0,0,1,.34.62c1.42-1.38,2.13-1.5,2.5-1.35a2.17,2.17,0,0,1,.88.38c.3.23.58.13.87.11,0,0,.12-.13.12-.19,0-.21.13-.25.3-.24a2.9,2.9,0,0,0,.51,0c.14,0,.38-.07.39-.14,0-.24.13-.53-.18-.67-.72-.34-1.42-.72-2.16-1a9.59,9.59,0,0,0-5.2-.37C274.11,213.23,274,213.28,273.84,213.31Z" transform="translate(-219 -132)"/><path id="Path_2256" data-name="Path 2256" class="cls-2" d="M264.81,222.88c-.1-.73-.24-1.47-.28-2.22a2.87,2.87,0,0,1,.25-1.22,1.4,1.4,0,0,1,1.75-.86l.15,0a9.4,9.4,0,0,0-2.52-4.3,4,4,0,0,0-1.13,2.25,7.69,7.69,0,0,0,.64,4.23A9.15,9.15,0,0,0,264.81,222.88Z" transform="translate(-219 -132)"/><path id="Path_2257" data-name="Path 2257" class="cls-2" d="M257.6,166.2c1.12-.21,2.24-.39,3.37-.54s2.25-.26,3.39-.33,2.27-.1,3.4-.08,2.27.13,3.41.18,2.1.4,3.17.43l2.71-1.44v-4.06l.08,0,1.7,3.14c.22.53.43,1,.57,1.25.27.54.47,1.1.7,1.66.11.26.23.53-.12.81.43,0,.51.19.61.46a39.68,39.68,0,0,1,1.74,6.52c.07.45.14.9.2,1.35a.46.46,0,0,1-.2-.26,13.37,13.37,0,0,0-2-3.3,6.56,6.56,0,0,0-1.23-1.06c-.39-.25-.6-.17-.87.2-.49.65-1,1.29-1.43,1.95a.68.68,0,0,0-.1.46,17,17,0,0,1,.22,6.71,14.6,14.6,0,0,1-3.62,7.58c-.49.54-1.05,1-1.58,1.5l-.1-.06a2.35,2.35,0,0,1-.46-.43,2.52,2.52,0,0,1-.32-2.1,4,4,0,0,0,.91-.93c.1-.14.15-.25.18-.29a12.84,12.84,0,0,0,2.53-6.06,1.51,1.51,0,0,0-.32-1.21,24.88,24.88,0,0,0-5.3-4.94A40.89,40.89,0,0,0,257,167.72c-.9-.28-1.8-.5-2.71-.75C255.39,166.67,256.49,166.4,257.6,166.2ZM274.83,175a7.31,7.31,0,0,0,.05-.8c0-.5-.09-1-.17-1.5a.6.6,0,0,1,.14-.56c.74-.9,1.48-1.8,2.21-2.71l.24-.32a35.39,35.39,0,0,0-12.62-1.3A31.66,31.66,0,0,1,274.83,175Z" transform="translate(-219 -132)"/><path id="Path_2258" data-name="Path 2258" class="cls-2" d="M281,196.21a.56.56,0,0,0,.57-.55h0a.56.56,0,1,0-.57.56Z" transform="translate(-219 -132)"/><path id="Path_2259" data-name="Path 2259" class="cls-2" d="M292.25,218.77c-.06.15.14.48.46.48s.53-.35.47-.5S292.33,218.55,292.25,218.77Z" transform="translate(-219 -132)"/><path id="Path_2260" data-name="Path 2260" class="cls-2" d="M320.29,166.48a.43.43,0,0,0-.49-.37.45.45,0,0,0-.37.37Z" transform="translate(-219 -132)"/><path id="Path_2261" data-name="Path 2261" class="cls-2" d="M247,216.49" transform="translate(-219 -132)"/><path id="Path_2262" data-name="Path 2262" class="cls-2" d="M320.92,167.12" transform="translate(-219 -132)"/><path id="Path_2263" data-name="Path 2263" class="cls-2" d="M305.67,188.8" transform="translate(-219 -132)"/><path id="Path_2264" data-name="Path 2264" class="cls-2" d="M274.56,199.06a4.94,4.94,0,0,0,2.29.53c.24,0,.34-.05.38-.33a28.19,28.19,0,0,1,.5-3,11,11,0,0,1,4.62-6.76,8.52,8.52,0,0,1,2.56-1.18c-.07.16-.1.27-.14.36-.31.85-.62,1.69-.92,2.54a.4.4,0,0,0,0,.34,4.13,4.13,0,0,1,1,2.6,5.19,5.19,0,0,1-4.48,5.7l-.64.09c.67,1.09,1.72.9,2.73.91a.81.81,0,0,1-.14.12l-.28.15a6.3,6.3,0,0,1-3.37.48,5.31,5.31,0,0,1-3.59-1.72,8.54,8.54,0,0,1-.56-.78Zm7.51-.9a3.29,3.29,0,0,0,1.33-3.1,4.66,4.66,0,0,0-1.44-2.95,3.21,3.21,0,0,0-1.42,1.49,2.53,2.53,0,0,1,1.87,2,3.53,3.53,0,0,1-.67,2.77l.33-.21ZM281,196.21a.57.57,0,0,0,.57-.56h0a.58.58,0,0,0-.57-.58.57.57,0,0,0,0,1.14Z" transform="translate(-219 -132)"/></g><g id="Group_381" data-name="Group 381"><path id="Path_2265" data-name="Path 2265" class="cls-3" d="M219,253.21h6.07c3.22,0,5.92,1.11,5.92,4.76a4,4,0,0,1-3.39,4.3l4,6.63h-4.15l-3.27-6.28h-1.71v6.28H219Zm3.46,6.49h2c1.26,0,2.9,0,2.9-1.75s-1.42-1.82-2.69-1.82h-2.26v3.57Z" transform="translate(-219 -132)"/><path id="Path_2266" data-name="Path 2266" class="cls-3" d="M236.27,252.14v7.45h0a3.16,3.16,0,0,1,3-1.73c3.37,0,4,2.22,4,5.11v5.94H240v-5.28c0-1.24,0-2.83-1.73-2.83s-2,1.35-2,2.74v5.37H233V252.14Z" transform="translate(-219 -132)"/><path id="Path_2267" data-name="Path 2267" class="cls-3" d="M247.38,252.81a1.93,1.93,0,1,1-1.93,1.92h0A1.92,1.92,0,0,1,247.38,252.81Zm-1.67,5.31H249v10.77h-3.32Z" transform="translate(-219 -132)"/><path id="Path_2268" data-name="Path 2268" class="cls-3" d="M251.43,258.13h3.2v1.46h0a3.48,3.48,0,0,1,3.15-1.73c3.37,0,4,2.22,4,5.1v5.94h-3.32v-5.27c0-1.25,0-2.84-1.73-2.84s-2,1.35-2,2.75v5.36h-3.31V258.13Z" transform="translate(-219 -132)"/><path id="Path_2269" data-name="Path 2269" class="cls-3" d="M269.74,257.86c3.32,0,6,2.22,6,5.65s-2.66,5.65-6,5.65-6-2.22-6-5.65S266.42,257.86,269.74,257.86Zm0,8.38a2.73,2.73,0,1,0-2.66-2.8v.07a2.52,2.52,0,0,0,2.3,2.72Z" transform="translate(-219 -132)"/><path id="Path_2270" data-name="Path 2270" class="cls-3" d="M288.65,257a3.37,3.37,0,0,0-2.5-1c-1,0-2.33.45-2.33,1.62,0,2.86,7.22,1,7.22,6.52,0,3.5-2.81,5.16-6.05,5.16a7.45,7.45,0,0,1-5.27-2l2.46-2.7a3.84,3.84,0,0,0,3,1.49c1.12,0,2.39-.53,2.39-1.64,0-2.88-7.36-1.33-7.36-6.56,0-3.35,2.9-5.1,6-5.1a7.05,7.05,0,0,1,4.8,1.64Z" transform="translate(-219 -132)"/><rect id="Rectangle_1500" data-name="Rectangle 1500" class="cls-3" x="87.88" y="121.13" width="3.32" height="15.77"/><path id="Path_2271" data-name="Path 2271" class="cls-3" d="M314.4,254a1.93,1.93,0,1,1-1.92,1.93h0A1.93,1.93,0,0,1,314.4,254Z" transform="translate(-219 -132)"/><rect id="Rectangle_1501" data-name="Rectangle 1501" class="cls-3" x="93.74" y="127.42" width="3.32" height="9.48"/><path id="Path_2272" data-name="Path 2272" class="cls-3" d="M325.92,260.78H323v3.59c0,1.16.14,2,1.58,2a2.29,2.29,0,0,0,1.35-.31v2.78a7.07,7.07,0,0,1-2.33.33c-2.22,0-3.92-.91-3.92-3.26v-5.12h-2.13v-2.66h2.13v-3.2H323v3.2h2.93v2.65Z" transform="translate(-219 -132)"/><path id="Path_2273" data-name="Path 2273" class="cls-3" d="M333.81,261.29a2.37,2.37,0,0,0-1.93-.91c-.55,0-1.22.24-1.22.89,0,1.59,5.61.24,5.61,4.34,0,2.75-2.66,3.55-5,3.55a5.94,5.94,0,0,1-4.23-1.46l2-2.24a2.89,2.89,0,0,0,2.35,1.17c.75,0,1.5-.2,1.5-.78,0-1.73-5.61-.27-5.61-4.37,0-2.52,2.27-3.63,4.53-3.63a5.49,5.49,0,0,1,4,1.42Z" transform="translate(-219 -132)"/><path id="Path_2274" data-name="Path 2274" class="cls-3" d="M299.92,257.86a4.17,4.17,0,0,0-3.3,1.69h-.05v-1.42h-3.06V274h3.32v-6.2h0a4,4,0,0,0,3.42,1.41c3.06,0,4.92-2.75,4.92-5.74C305.22,260.16,303.11,257.86,299.92,257.86Zm.25,8.38a2.73,2.73,0,1,1,2.65-2.8v.07a2.52,2.52,0,0,1-2.29,2.72h-.36Z" transform="translate(-219 -132)"/></g><path id="Path_2275" data-name="Path 2275" class="cls-4" d="M317.41,242.14" transform="translate(-219 -132)"/><circle id="Ellipse_233" data-name="Ellipse 233" class="cls-5" cx="58.3" cy="57.71" r="55.21"/></g></svg>